STARTFONT 2.1
FONT -FontForge-Tiny-Medium-R-Normal--5-50-75-75-P-39-ISO10646-1
SIZE 5 75 75
FONTBOUNDINGBOX 5 5 0 -2
COMMENT "Generated by fontforge, http://fontforge.sourceforge.net"
STARTPROPERTIES 28
FONT_NAME "Tiny-Prop-5"
FONT_ASCENT 3
FONT_DESCENT 2
UNDERLINE_POSITION 50
UNDERLINE_THICKNESS 50
QUAD_WIDTH 5
X_HEIGHT 2
CAP_HEIGHT 2
DEFAULT_CHAR 0
FONTNAME_REGISTRY ""
FAMILY_NAME "Tiny"
FOUNDRY "FontForge"
WEIGHT_NAME "Medium"
SETWIDTH_NAME "Normal"
SLANT "R"
ADD_STYLE_NAME ""
PIXEL_SIZE 5
POINT_SIZE 50
RESOLUTION_X 75
RESOLUTION_Y 75
RESOLUTION 75
SPACING "P"
AVERAGE_WIDTH 39
CHARSET_REGISTRY "ISO10646"
CHARSET_ENCODING "1"
CHARSET_COLLECTIONS "ASCII ISO8859-1"
FULL_NAME "Tiny-Prop-5"
COPYRIGHT "Created by Brent Geery for the RockBox project."
ENDPROPERTIES
CHARS 192
STARTCHAR .notdef
ENCODING 0
SWIDTH 1000 0
DWIDTH 2 0
BBX 1 1 0 0
BITMAP
00
ENDCHAR
STARTCHAR space
ENCODING 32
SWIDTH 400 0
DWIDTH 2 0
BBX 1 1 0 0
BITMAP
00
ENDCHAR
STARTCHAR exclam
ENCODING 33
SWIDTH 400 0
DWIDTH 2 0
BBX 1 4 1 -1
BITMAP
80
80
00
80
ENDCHAR
STARTCHAR quotedbl
ENCODING 34
SWIDTH 800 0
DWIDTH 4 0
BBX 3 2 1 1
BITMAP
A0
A0
ENDCHAR
STARTCHAR numbersign
ENCODING 35
SWIDTH 1000 0
DWIDTH 5 0
BBX 4 4 1 -1
BITMAP
20
F0
F0
40
ENDCHAR
STARTCHAR dollar
ENCODING 36
SWIDTH 800 0
DWIDTH 4 0
BBX 3 4 1 -1
BITMAP
60
C0
60
C0
ENDCHAR
STARTCHAR percent
ENCODING 37
SWIDTH 800 0
DWIDTH 4 0
BBX 3 4 1 -1
BITMAP
A0
60
C0
A0
ENDCHAR
STARTCHAR ampersand
ENCODING 38
SWIDTH 800 0
DWIDTH 4 0
BBX 3 3 1 -1
BITMAP
40
E0
40
ENDCHAR
STARTCHAR quotesingle
ENCODING 39
SWIDTH 400 0
DWIDTH 2 0
BBX 1 2 1 1
BITMAP
80
80
ENDCHAR
STARTCHAR parenleft
ENCODING 40
SWIDTH 600 0
DWIDTH 3 0
BBX 2 4 1 -1
BITMAP
40
80
80
40
ENDCHAR
STARTCHAR parenright
ENCODING 41
SWIDTH 600 0
DWIDTH 3 0
BBX 2 4 1 -1
BITMAP
80
40
40
80
ENDCHAR
STARTCHAR asterisk
ENCODING 42
SWIDTH 800 0
DWIDTH 4 0
BBX 3 4 1 -1
BITMAP
40
E0
40
A0
ENDCHAR
STARTCHAR plus
ENCODING 43
SWIDTH 800 0
DWIDTH 4 0
BBX 3 3 1 -1
BITMAP
40
E0
40
ENDCHAR
STARTCHAR comma
ENCODING 44
SWIDTH 600 0
DWIDTH 3 0
BBX 2 2 1 -1
BITMAP
40
80
ENDCHAR
STARTCHAR hyphen
ENCODING 45
SWIDTH 800 0
DWIDTH 4 0
BBX 3 1 1 0
BITMAP
E0
ENDCHAR
STARTCHAR period
ENCODING 46
SWIDTH 400 0
DWIDTH 2 0
BBX 1 1 1 -1
BITMAP
80
ENDCHAR
STARTCHAR slash
ENCODING 47
SWIDTH 800 0
DWIDTH 4 0
BBX 3 4 1 -1
BITMAP
20
60
C0
80
ENDCHAR
STARTCHAR zero
ENCODING 48
SWIDTH 800 0
DWIDTH 4 0
BBX 3 4 1 -1
BITMAP
60
A0
A0
C0
ENDCHAR
STARTCHAR one
ENCODING 49
SWIDTH 800 0
DWIDTH 4 0
BBX 3 4 1 -1
BITMAP
C0
40
40
E0
ENDCHAR
STARTCHAR two
ENCODING 50
SWIDTH 800 0
DWIDTH 4 0
BBX 3 4 1 -1
BITMAP
C0
20
80
E0
ENDCHAR
STARTCHAR three
ENCODING 51
SWIDTH 800 0
DWIDTH 4 0
BBX 3 4 1 -1
BITMAP
E0
20
60
E0
ENDCHAR
STARTCHAR four
ENCODING 52
SWIDTH 800 0
DWIDTH 4 0
BBX 3 4 1 -1
BITMAP
A0
A0
E0
20
ENDCHAR
STARTCHAR five
ENCODING 53
SWIDTH 800 0
DWIDTH 4 0
BBX 3 4 1 -1
BITMAP
E0
80
20
C0
ENDCHAR
STARTCHAR six
ENCODING 54
SWIDTH 800 0
DWIDTH 4 0
BBX 3 4 1 -1
BITMAP
60
80
E0
E0
ENDCHAR
STARTCHAR seven
ENCODING 55
SWIDTH 800 0
DWIDTH 4 0
BBX 3 4 1 -1
BITMAP
E0
20
40
40
ENDCHAR
STARTCHAR eight
ENCODING 56
SWIDTH 800 0
DWIDTH 4 0
BBX 3 4 1 -1
BITMAP
E0
E0
A0
E0
ENDCHAR
STARTCHAR nine
ENCODING 57
SWIDTH 800 0
DWIDTH 4 0
BBX 3 4 1 -1
BITMAP
E0
E0
20
C0
ENDCHAR
STARTCHAR colon
ENCODING 58
SWIDTH 400 0
DWIDTH 2 0
BBX 1 3 1 -1
BITMAP
80
00
80
ENDCHAR
STARTCHAR semicolon
ENCODING 59
SWIDTH 600 0
DWIDTH 3 0
BBX 2 4 1 -1
BITMAP
40
00
40
80
ENDCHAR
STARTCHAR less
ENCODING 60
SWIDTH 600 0
DWIDTH 3 0
BBX 2 3 1 -1
BITMAP
40
80
40
ENDCHAR
STARTCHAR equal
ENCODING 61
SWIDTH 800 0
DWIDTH 4 0
BBX 3 3 1 -1
BITMAP
E0
00
E0
ENDCHAR
STARTCHAR greater
ENCODING 62
SWIDTH 600 0
DWIDTH 3 0
BBX 2 3 1 -1
BITMAP
80
40
80
ENDCHAR
STARTCHAR question
ENCODING 63
SWIDTH 800 0
DWIDTH 4 0
BBX 3 4 1 -1
BITMAP
C0
20
C0
80
ENDCHAR
STARTCHAR at
ENCODING 64
SWIDTH 1000 0
DWIDTH 5 0
BBX 4 4 1 -1
BITMAP
70
B0
80
70
ENDCHAR
STARTCHAR A
ENCODING 65
SWIDTH 800 0
DWIDTH 4 0
BBX 3 4 1 -1
BITMAP
40
A0
E0
A0
ENDCHAR
STARTCHAR B
ENCODING 66
SWIDTH 800 0
DWIDTH 4 0
BBX 3 4 1 -1
BITMAP
E0
C0
A0
E0
ENDCHAR
STARTCHAR C
ENCODING 67
SWIDTH 800 0
DWIDTH 4 0
BBX 3 4 1 -1
BITMAP
60
80
80
60
ENDCHAR
STARTCHAR D
ENCODING 68
SWIDTH 800 0
DWIDTH 4 0
BBX 3 4 1 -1
BITMAP
C0
A0
A0
C0
ENDCHAR
STARTCHAR E
ENCODING 69
SWIDTH 800 0
DWIDTH 4 0
BBX 3 4 1 -1
BITMAP
E0
80
C0
E0
ENDCHAR
STARTCHAR F
ENCODING 70
SWIDTH 800 0
DWIDTH 4 0
BBX 3 4 1 -1
BITMAP
E0
80
C0
80
ENDCHAR
STARTCHAR G
ENCODING 71
SWIDTH 800 0
DWIDTH 4 0
BBX 3 4 1 -1
BITMAP
60
80
A0
60
ENDCHAR
STARTCHAR H
ENCODING 72
SWIDTH 800 0
DWIDTH 4 0
BBX 3 4 1 -1
BITMAP
A0
E0
E0
A0
ENDCHAR
STARTCHAR I
ENCODING 73
SWIDTH 800 0
DWIDTH 4 0
BBX 3 4 1 -1
BITMAP
E0
40
40
E0
ENDCHAR
STARTCHAR J
ENCODING 74
SWIDTH 800 0
DWIDTH 4 0
BBX 3 4 1 -1
BITMAP
20
20
A0
40
ENDCHAR
STARTCHAR K
ENCODING 75
SWIDTH 800 0
DWIDTH 4 0
BBX 3 4 1 -1
BITMAP
A0
C0
C0
A0
ENDCHAR
STARTCHAR L
ENCODING 76
SWIDTH 800 0
DWIDTH 4 0
BBX 3 4 1 -1
BITMAP
80
80
80
E0
ENDCHAR
STARTCHAR M
ENCODING 77
SWIDTH 800 0
DWIDTH 4 0
BBX 3 4 1 -1
BITMAP
E0
E0
A0
A0
ENDCHAR
STARTCHAR N
ENCODING 78
SWIDTH 800 0
DWIDTH 4 0
BBX 3 5 1 -2
BITMAP
20
A0
E0
A0
80
ENDCHAR
STARTCHAR O
ENCODING 79
SWIDTH 800 0
DWIDTH 4 0
BBX 3 4 1 -1
BITMAP
40
A0
A0
40
ENDCHAR
STARTCHAR P
ENCODING 80
SWIDTH 800 0
DWIDTH 4 0
BBX 3 4 1 -1
BITMAP
C0
A0
C0
80
ENDCHAR
STARTCHAR Q
ENCODING 81
SWIDTH 800 0
DWIDTH 4 0
BBX 3 5 1 -2
BITMAP
40
A0
A0
C0
20
ENDCHAR
STARTCHAR R
ENCODING 82
SWIDTH 800 0
DWIDTH 4 0
BBX 3 4 1 -1
BITMAP
C0
A0
C0
A0
ENDCHAR
STARTCHAR S
ENCODING 83
SWIDTH 800 0
DWIDTH 4 0
BBX 3 4 1 -1
BITMAP
60
80
20
C0
ENDCHAR
STARTCHAR T
ENCODING 84
SWIDTH 800 0
DWIDTH 4 0
BBX 3 4 1 -1
BITMAP
E0
40
40
40
ENDCHAR
STARTCHAR U
ENCODING 85
SWIDTH 800 0
DWIDTH 4 0
BBX 3 4 1 -1
BITMAP
A0
A0
A0
E0
ENDCHAR
STARTCHAR V
ENCODING 86
SWIDTH 800 0
DWIDTH 4 0
BBX 3 4 1 -1
BITMAP
A0
A0
A0
40
ENDCHAR
STARTCHAR W
ENCODING 87
SWIDTH 800 0
DWIDTH 4 0
BBX 3 4 1 -1
BITMAP
A0
A0
E0
E0
ENDCHAR
STARTCHAR X
ENCODING 88
SWIDTH 800 0
DWIDTH 4 0
BBX 3 4 1 -1
BITMAP
A0
40
40
A0
ENDCHAR
STARTCHAR Y
ENCODING 89
SWIDTH 800 0
DWIDTH 4 0
BBX 3 4 1 -1
BITMAP
A0
E0
40
40
ENDCHAR
STARTCHAR Z
ENCODING 90
SWIDTH 800 0
DWIDTH 4 0
BBX 3 4 1 -1
BITMAP
E0
20
80
E0
ENDCHAR
STARTCHAR bracketleft
ENCODING 91
SWIDTH 600 0
DWIDTH 3 0
BBX 2 4 1 -1
BITMAP
C0
80
80
C0
ENDCHAR
STARTCHAR backslash
ENCODING 92
SWIDTH 800 0
DWIDTH 4 0
BBX 3 4 1 -1
BITMAP
80
C0
60
20
ENDCHAR
STARTCHAR bracketright
ENCODING 93
SWIDTH 600 0
DWIDTH 3 0
BBX 2 4 1 -1
BITMAP
C0
40
40
C0
ENDCHAR
STARTCHAR asciicircum
ENCODING 94
SWIDTH 800 0
DWIDTH 4 0
BBX 3 2 1 1
BITMAP
40
A0
ENDCHAR
STARTCHAR underscore
ENCODING 95
SWIDTH 800 0
DWIDTH 4 0
BBX 3 1 1 -1
BITMAP
E0
ENDCHAR
STARTCHAR grave
ENCODING 96
SWIDTH 600 0
DWIDTH 3 0
BBX 2 2 1 1
BITMAP
80
40
ENDCHAR
STARTCHAR a
ENCODING 97
SWIDTH 1000 0
DWIDTH 4 0
BBX 3 4 1 -1
BITMAP
40
A0
E0
A0
ENDCHAR
STARTCHAR b
ENCODING 98
SWIDTH 1000 0
DWIDTH 4 0
BBX 3 4 1 -1
BITMAP
E0
C0
A0
E0
ENDCHAR
STARTCHAR c
ENCODING 99
SWIDTH 1000 0
DWIDTH 4 0
BBX 3 4 1 -1
BITMAP
60
80
80
60
ENDCHAR
STARTCHAR d
ENCODING 100
SWIDTH 1000 0
DWIDTH 4 0
BBX 3 4 1 -1
BITMAP
C0
A0
A0
C0
ENDCHAR
STARTCHAR e
ENCODING 101
SWIDTH 1000 0
DWIDTH 4 0
BBX 3 4 1 -1
BITMAP
E0
80
C0
E0
ENDCHAR
STARTCHAR f
ENCODING 102
SWIDTH 1000 0
DWIDTH 4 0
BBX 3 4 1 -1
BITMAP
E0
80
C0
80
ENDCHAR
STARTCHAR g
ENCODING 103
SWIDTH 1000 0
DWIDTH 4 0
BBX 3 4 1 -1
BITMAP
60
80
A0
60
ENDCHAR
STARTCHAR h
ENCODING 104
SWIDTH 1000 0
DWIDTH 4 0
BBX 3 4 1 -1
BITMAP
A0
E0
E0
A0
ENDCHAR
STARTCHAR i
ENCODING 105
SWIDTH 1000 0
DWIDTH 4 0
BBX 3 4 1 -1
BITMAP
E0
40
40
E0
ENDCHAR
STARTCHAR j
ENCODING 106
SWIDTH 1000 0
DWIDTH 4 0
BBX 3 4 1 -1
BITMAP
20
20
A0
40
ENDCHAR
STARTCHAR k
ENCODING 107
SWIDTH 1000 0
DWIDTH 4 0
BBX 3 4 1 -1
BITMAP
A0
C0
C0
A0
ENDCHAR
STARTCHAR l
ENCODING 108
SWIDTH 1000 0
DWIDTH 4 0
BBX 3 4 1 -1
BITMAP
80
80
80
E0
ENDCHAR
STARTCHAR m
ENCODING 109
SWIDTH 1000 0
DWIDTH 4 0
BBX 3 4 1 -1
BITMAP
E0
E0
A0
A0
ENDCHAR
STARTCHAR n
ENCODING 110
SWIDTH 1000 0
DWIDTH 4 0
BBX 3 5 1 -2
BITMAP
20
A0
E0
A0
80
ENDCHAR
STARTCHAR o
ENCODING 111
SWIDTH 1000 0
DWIDTH 4 0
BBX 3 4 1 -1
BITMAP
40
A0
A0
40
ENDCHAR
STARTCHAR p
ENCODING 112
SWIDTH 1000 0
DWIDTH 4 0
BBX 3 4 1 -1
BITMAP
C0
A0
C0
80
ENDCHAR
STARTCHAR q
ENCODING 113
SWIDTH 1000 0
DWIDTH 4 0
BBX 3 5 1 -2
BITMAP
40
A0
A0
C0
20
ENDCHAR
STARTCHAR r
ENCODING 114
SWIDTH 1000 0
DWIDTH 4 0
BBX 3 4 1 -1
BITMAP
C0
A0
C0
A0
ENDCHAR
STARTCHAR s
ENCODING 115
SWIDTH 1000 0
DWIDTH 4 0
BBX 3 4 1 -1
BITMAP
60
80
20
C0
ENDCHAR
STARTCHAR t
ENCODING 116
SWIDTH 1000 0
DWIDTH 4 0
BBX 3 4 1 -1
BITMAP
E0
40
40
40
ENDCHAR
STARTCHAR u
ENCODING 117
SWIDTH 1000 0
DWIDTH 4 0
BBX 3 4 1 -1
BITMAP
A0
A0
A0
E0
ENDCHAR
STARTCHAR v
ENCODING 118
SWIDTH 1000 0
DWIDTH 4 0
BBX 3 4 1 -1
BITMAP
A0
A0
A0
40
ENDCHAR
STARTCHAR w
ENCODING 119
SWIDTH 1000 0
DWIDTH 4 0
BBX 3 4 1 -1
BITMAP
A0
A0
E0
E0
ENDCHAR
STARTCHAR x
ENCODING 120
SWIDTH 1000 0
DWIDTH 4 0
BBX 3 4 1 -1
BITMAP
A0
40
40
A0
ENDCHAR
STARTCHAR y
ENCODING 121
SWIDTH 1000 0
DWIDTH 4 0
BBX 3 4 1 -1
BITMAP
A0
E0
40
40
ENDCHAR
STARTCHAR z
ENCODING 122
SWIDTH 1000 0
DWIDTH 4 0
BBX 3 4 1 -1
BITMAP
E0
20
80
E0
ENDCHAR
STARTCHAR braceleft
ENCODING 123
SWIDTH 800 0
DWIDTH 4 0
BBX 3 4 1 -1
BITMAP
60
C0
40
60
ENDCHAR
STARTCHAR bar
ENCODING 124
SWIDTH 400 0
DWIDTH 2 0
BBX 1 4 1 -1
BITMAP
80
80
80
80
ENDCHAR
STARTCHAR braceright
ENCODING 125
SWIDTH 800 0
DWIDTH 4 0
BBX 3 4 1 -1
BITMAP
C0
60
40
C0
ENDCHAR
STARTCHAR asciitilde
ENCODING 126
SWIDTH 1000 0
DWIDTH 5 0
BBX 4 2 1 1
BITMAP
50
A0
ENDCHAR
STARTCHAR nonbreakingspace
ENCODING 160
SWIDTH 1000 0
DWIDTH 2 0
BBX 1 1 0 0
BITMAP
00
ENDCHAR
STARTCHAR exclamdown
ENCODING 161
SWIDTH 400 0
DWIDTH 2 0
BBX 1 4 1 -1
BITMAP
80
00
80
80
ENDCHAR
STARTCHAR cent
ENCODING 162
SWIDTH 800 0
DWIDTH 4 0
BBX 3 5 1 -2
BITMAP
40
E0
80
E0
40
ENDCHAR
STARTCHAR sterling
ENCODING 163
SWIDTH 1000 0
DWIDTH 5 0
BBX 4 4 1 -1
BITMAP
60
C0
40
F0
ENDCHAR
STARTCHAR currency
ENCODING 164
SWIDTH 1000 0
DWIDTH 5 0
BBX 4 4 1 -1
BITMAP
90
60
60
90
ENDCHAR
STARTCHAR yen
ENCODING 165
SWIDTH 800 0
DWIDTH 4 0
BBX 3 4 1 -1
BITMAP
A0
40
E0
40
ENDCHAR
STARTCHAR brokenbar
ENCODING 166
SWIDTH 400 0
DWIDTH 2 0
BBX 1 4 1 -1
BITMAP
80
80
80
80
ENDCHAR
STARTCHAR section
ENCODING 167
SWIDTH 800 0
DWIDTH 4 0
BBX 3 4 1 -1
BITMAP
E0
C0
60
E0
ENDCHAR
STARTCHAR dieresis
ENCODING 168
SWIDTH 800 0
DWIDTH 4 0
BBX 3 1 1 2
BITMAP
A0
ENDCHAR
STARTCHAR copyright
ENCODING 169
SWIDTH 1000 0
DWIDTH 5 0
BBX 4 5 1 -2
BITMAP
60
90
B0
90
60
ENDCHAR
STARTCHAR ordfeminine
ENCODING 170
SWIDTH 800 0
DWIDTH 4 0
BBX 3 5 1 -2
BITMAP
C0
20
E0
00
E0
ENDCHAR
STARTCHAR guillemotleft
ENCODING 171
SWIDTH 1000 0
DWIDTH 5 0
BBX 4 3 1 -1
BITMAP
50
A0
50
ENDCHAR
STARTCHAR logicalnot
ENCODING 172
SWIDTH 800 0
DWIDTH 4 0
BBX 3 2 1 -1
BITMAP
E0
20
ENDCHAR
STARTCHAR softhyphen
ENCODING 173
SWIDTH 800 0
DWIDTH 4 0
BBX 3 1 1 0
BITMAP
E0
ENDCHAR
STARTCHAR registered
ENCODING 174
SWIDTH 1000 0
DWIDTH 5 0
BBX 4 5 1 -2
BITMAP
60
90
B0
B0
60
ENDCHAR
STARTCHAR macron
ENCODING 175
SWIDTH 800 0
DWIDTH 4 0
BBX 3 1 1 2
BITMAP
E0
ENDCHAR
STARTCHAR degree
ENCODING 176
SWIDTH 800 0
DWIDTH 4 0
BBX 3 3 1 0
BITMAP
40
A0
40
ENDCHAR
STARTCHAR plusminus
ENCODING 177
SWIDTH 800 0
DWIDTH 4 0
BBX 3 4 1 -1
BITMAP
40
E0
40
E0
ENDCHAR
STARTCHAR uni00B2
ENCODING 178
SWIDTH 800 0
DWIDTH 4 0
BBX 3 4 1 -1
BITMAP
C0
40
C0
20
ENDCHAR
STARTCHAR uni00B3
ENCODING 179
SWIDTH 600 0
DWIDTH 3 0
BBX 2 4 1 -1
BITMAP
C0
40
C0
C0
ENDCHAR
STARTCHAR acute
ENCODING 180
SWIDTH 600 0
DWIDTH 3 0
BBX 2 2 1 1
BITMAP
40
80
ENDCHAR
STARTCHAR mu
ENCODING 181
SWIDTH 800 0
DWIDTH 4 0
BBX 3 4 1 -2
BITMAP
A0
A0
E0
80
ENDCHAR
STARTCHAR paragraph
ENCODING 182
SWIDTH 800 0
DWIDTH 4 0
BBX 3 5 1 -2
BITMAP
E0
E0
20
20
20
ENDCHAR
STARTCHAR periodcentered
ENCODING 183
SWIDTH 400 0
DWIDTH 2 0
BBX 1 1 1 0
BITMAP
80
ENDCHAR
STARTCHAR cedilla
ENCODING 184
SWIDTH 600 0
DWIDTH 3 0
BBX 2 2 1 -1
BITMAP
80
40
ENDCHAR
STARTCHAR uni00B9
ENCODING 185
SWIDTH 600 0
DWIDTH 3 0
BBX 1 3 2 0
BITMAP
80
80
80
ENDCHAR
STARTCHAR ordmasculine
ENCODING 186
SWIDTH 600 0
DWIDTH 3 0
BBX 2 4 1 -1
BITMAP
C0
C0
00
C0
ENDCHAR
STARTCHAR guillemotright
ENCODING 187
SWIDTH 1000 0
DWIDTH 5 0
BBX 4 3 1 0
BITMAP
A0
50
A0
ENDCHAR
STARTCHAR onequarter
ENCODING 188
SWIDTH 1000 0
DWIDTH 5 0
BBX 4 5 1 -2
BITMAP
90
A0
50
B0
10
ENDCHAR
STARTCHAR onehalf
ENCODING 189
SWIDTH 1000 0
DWIDTH 5 0
BBX 4 5 1 -2
BITMAP
90
A0
70
90
30
ENDCHAR
STARTCHAR threequarters
ENCODING 190
SWIDTH 1000 0
DWIDTH 5 0
BBX 4 5 1 -2
BITMAP
D0
60
D0
B0
10
ENDCHAR
STARTCHAR questiondown
ENCODING 191
SWIDTH 1000 0
DWIDTH 5 0
BBX 3 4 1 -1
BITMAP
20
60
80
60
ENDCHAR
STARTCHAR Agrave
ENCODING 192
SWIDTH 1000 0
DWIDTH 4 0
BBX 3 4 1 -1
BITMAP
40
A0
E0
A0
ENDCHAR
STARTCHAR Aacute
ENCODING 193
SWIDTH 1000 0
DWIDTH 4 0
BBX 3 4 1 -1
BITMAP
40
A0
E0
A0
ENDCHAR
STARTCHAR Acircumflex
ENCODING 194
SWIDTH 1000 0
DWIDTH 4 0
BBX 3 4 1 -1
BITMAP
40
A0
E0
A0
ENDCHAR
STARTCHAR Atilde
ENCODING 195
SWIDTH 1000 0
DWIDTH 4 0
BBX 3 4 1 -1
BITMAP
40
A0
E0
A0
ENDCHAR
STARTCHAR Adieresis
ENCODING 196
SWIDTH 1000 0
DWIDTH 4 0
BBX 3 4 1 -1
BITMAP
40
A0
E0
A0
ENDCHAR
STARTCHAR Aring
ENCODING 197
SWIDTH 1000 0
DWIDTH 4 0
BBX 3 4 1 -1
BITMAP
40
A0
E0
A0
ENDCHAR
STARTCHAR AE
ENCODING 198
SWIDTH 1200 0
DWIDTH 6 0
BBX 5 4 1 -1
BITMAP
78
A0
F0
B8
ENDCHAR
STARTCHAR Ccedilla
ENCODING 199
SWIDTH 1000 0
DWIDTH 4 0
BBX 3 5 1 -2
BITMAP
60
80
80
60
C0
ENDCHAR
STARTCHAR Egrave
ENCODING 200
SWIDTH 1000 0
DWIDTH 4 0
BBX 3 4 1 -1
BITMAP
E0
80
C0
E0
ENDCHAR
STARTCHAR Eacute
ENCODING 201
SWIDTH 1000 0
DWIDTH 4 0
BBX 3 4 1 -1
BITMAP
E0
80
C0
E0
ENDCHAR
STARTCHAR Ecircumflex
ENCODING 202
SWIDTH 1000 0
DWIDTH 4 0
BBX 3 4 1 -1
BITMAP
E0
80
C0
E0
ENDCHAR
STARTCHAR Edieresis
ENCODING 203
SWIDTH 1000 0
DWIDTH 4 0
BBX 3 4 1 -1
BITMAP
E0
80
C0
E0
ENDCHAR
STARTCHAR Igrave
ENCODING 204
SWIDTH 1000 0
DWIDTH 4 0
BBX 3 4 1 -1
BITMAP
E0
40
40
E0
ENDCHAR
STARTCHAR Iacute
ENCODING 205
SWIDTH 1000 0
DWIDTH 4 0
BBX 3 4 1 -1
BITMAP
E0
40
40
E0
ENDCHAR
STARTCHAR Icircumflex
ENCODING 206
SWIDTH 1000 0
DWIDTH 4 0
BBX 3 4 1 -1
BITMAP
E0
40
40
E0
ENDCHAR
STARTCHAR Idieresis
ENCODING 207
SWIDTH 1000 0
DWIDTH 4 0
BBX 3 4 1 -1
BITMAP
E0
40
40
E0
ENDCHAR
STARTCHAR Eth
ENCODING 208
SWIDTH 1000 0
DWIDTH 5 0
BBX 4 4 1 -1
BITMAP
60
50
D0
60
ENDCHAR
STARTCHAR Ntilde
ENCODING 209
SWIDTH 1000 0
DWIDTH 4 0
BBX 3 5 1 -2
BITMAP
20
A0
E0
A0
80
ENDCHAR
STARTCHAR Ograve
ENCODING 210
SWIDTH 1000 0
DWIDTH 4 0
BBX 3 4 1 -1
BITMAP
40
A0
A0
40
ENDCHAR
STARTCHAR Oacute
ENCODING 211
SWIDTH 1000 0
DWIDTH 4 0
BBX 3 4 1 -1
BITMAP
40
A0
A0
40
ENDCHAR
STARTCHAR Ocircumflex
ENCODING 212
SWIDTH 1000 0
DWIDTH 4 0
BBX 3 4 1 -1
BITMAP
40
A0
A0
40
ENDCHAR
STARTCHAR Otilde
ENCODING 213
SWIDTH 1000 0
DWIDTH 4 0
BBX 3 4 1 -1
BITMAP
40
A0
A0
40
ENDCHAR
STARTCHAR Odieresis
ENCODING 214
SWIDTH 1000 0
DWIDTH 4 0
BBX 3 4 1 -1
BITMAP
40
A0
A0
40
ENDCHAR
STARTCHAR multiply
ENCODING 215
SWIDTH 800 0
DWIDTH 4 0
BBX 3 3 1 -1
BITMAP
A0
40
A0
ENDCHAR
STARTCHAR Oslash
ENCODING 216
SWIDTH 1000 0
DWIDTH 5 0
BBX 4 4 1 -1
BITMAP
70
B0
D0
E0
ENDCHAR
STARTCHAR Ugrave
ENCODING 217
SWIDTH 1000 0
DWIDTH 4 0
BBX 3 4 1 -1
BITMAP
A0
A0
A0
E0
ENDCHAR
STARTCHAR Uacute
ENCODING 218
SWIDTH 1000 0
DWIDTH 4 0
BBX 3 4 1 -1
BITMAP
A0
A0
A0
E0
ENDCHAR
STARTCHAR Ucircumflex
ENCODING 219
SWIDTH 1000 0
DWIDTH 4 0
BBX 3 4 1 -1
BITMAP
A0
A0
A0
E0
ENDCHAR
STARTCHAR Udieresis
ENCODING 220
SWIDTH 1000 0
DWIDTH 4 0
BBX 3 4 1 -1
BITMAP
A0
A0
A0
E0
ENDCHAR
STARTCHAR Yacute
ENCODING 221
SWIDTH 1000 0
DWIDTH 4 0
BBX 3 4 1 -1
BITMAP
A0
E0
40
40
ENDCHAR
STARTCHAR Thorn
ENCODING 222
SWIDTH 800 0
DWIDTH 4 0
BBX 3 4 1 -1
BITMAP
80
E0
E0
80
ENDCHAR
STARTCHAR germandbls
ENCODING 223
SWIDTH 1000 0
DWIDTH 5 0
BBX 4 4 1 -1
BITMAP
70
60
50
F0
ENDCHAR
STARTCHAR agrave
ENCODING 224
SWIDTH 1000 0
DWIDTH 4 0
BBX 3 4 1 -1
BITMAP
40
A0
E0
A0
ENDCHAR
STARTCHAR aacute
ENCODING 225
SWIDTH 1000 0
DWIDTH 4 0
BBX 3 4 1 -1
BITMAP
40
A0
E0
A0
ENDCHAR
STARTCHAR acircumflex
ENCODING 226
SWIDTH 1000 0
DWIDTH 4 0
BBX 3 4 1 -1
BITMAP
40
A0
E0
A0
ENDCHAR
STARTCHAR atilde
ENCODING 227
SWIDTH 1000 0
DWIDTH 4 0
BBX 3 4 1 -1
BITMAP
40
A0
E0
A0
ENDCHAR
STARTCHAR adieresis
ENCODING 228
SWIDTH 1000 0
DWIDTH 4 0
BBX 3 4 1 -1
BITMAP
40
A0
E0
A0
ENDCHAR
STARTCHAR aring
ENCODING 229
SWIDTH 1000 0
DWIDTH 4 0
BBX 3 4 1 -1
BITMAP
40
A0
E0
A0
ENDCHAR
STARTCHAR ae
ENCODING 230
SWIDTH 1200 0
DWIDTH 6 0
BBX 5 4 1 -1
BITMAP
78
A0
F0
B8
ENDCHAR
STARTCHAR ccedilla
ENCODING 231
SWIDTH 1000 0
DWIDTH 4 0
BBX 3 5 1 -2
BITMAP
60
80
80
60
C0
ENDCHAR
STARTCHAR egrave
ENCODING 232
SWIDTH 1000 0
DWIDTH 4 0
BBX 3 4 1 -1
BITMAP
E0
80
C0
E0
ENDCHAR
STARTCHAR eacute
ENCODING 233
SWIDTH 1000 0
DWIDTH 4 0
BBX 3 4 1 -1
BITMAP
E0
80
C0
E0
ENDCHAR
STARTCHAR ecircumflex
ENCODING 234
SWIDTH 1000 0
DWIDTH 4 0
BBX 3 4 1 -1
BITMAP
E0
80
C0
E0
ENDCHAR
STARTCHAR edieresis
ENCODING 235
SWIDTH 1000 0
DWIDTH 4 0
BBX 3 4 1 -1
BITMAP
E0
80
C0
E0
ENDCHAR
STARTCHAR igrave
ENCODING 236
SWIDTH 1000 0
DWIDTH 4 0
BBX 3 4 1 -1
BITMAP
E0
80
C0
E0
ENDCHAR
STARTCHAR iacute
ENCODING 237
SWIDTH 1000 0
DWIDTH 4 0
BBX 3 4 1 -1
BITMAP
E0
80
C0
E0
ENDCHAR
STARTCHAR icircumflex
ENCODING 238
SWIDTH 1000 0
DWIDTH 4 0
BBX 3 4 1 -1
BITMAP
E0
80
C0
E0
ENDCHAR
STARTCHAR idieresis
ENCODING 239
SWIDTH 1000 0
DWIDTH 4 0
BBX 3 4 1 -1
BITMAP
E0
80
C0
E0
ENDCHAR
STARTCHAR eth
ENCODING 240
SWIDTH 1000 0
DWIDTH 5 0
BBX 4 5 1 -2
BITMAP
A0
60
D0
50
20
ENDCHAR
STARTCHAR ntilde
ENCODING 241
SWIDTH 1000 0
DWIDTH 4 0
BBX 3 5 1 -2
BITMAP
20
A0
E0
A0
80
ENDCHAR
STARTCHAR ograve
ENCODING 242
SWIDTH 1000 0
DWIDTH 4 0
BBX 3 4 1 -1
BITMAP
40
A0
A0
40
ENDCHAR
STARTCHAR oacute
ENCODING 243
SWIDTH 1000 0
DWIDTH 4 0
BBX 3 4 1 -1
BITMAP
40
A0
A0
40
ENDCHAR
STARTCHAR ocircumflex
ENCODING 244
SWIDTH 1000 0
DWIDTH 4 0
BBX 3 4 1 -1
BITMAP
40
A0
A0
40
ENDCHAR
STARTCHAR otilde
ENCODING 245
SWIDTH 1000 0
DWIDTH 4 0
BBX 3 4 1 -1
BITMAP
40
A0
A0
40
ENDCHAR
STARTCHAR odieresis
ENCODING 246
SWIDTH 1000 0
DWIDTH 4 0
BBX 3 4 1 -1
BITMAP
40
A0
A0
40
ENDCHAR
STARTCHAR divide
ENCODING 247
SWIDTH 800 0
DWIDTH 4 0
BBX 3 5 1 -2
BITMAP
40
00
E0
00
40
ENDCHAR
STARTCHAR oslash
ENCODING 248
SWIDTH 1000 0
DWIDTH 5 0
BBX 4 4 1 -1
BITMAP
70
B0
D0
E0
ENDCHAR
STARTCHAR ugrave
ENCODING 249
SWIDTH 1000 0
DWIDTH 4 0
BBX 3 4 1 -1
BITMAP
A0
A0
A0
E0
ENDCHAR
STARTCHAR uacute
ENCODING 250
SWIDTH 1000 0
DWIDTH 4 0
BBX 3 4 1 -1
BITMAP
A0
A0
A0
E0
ENDCHAR
STARTCHAR ucircumflex
ENCODING 251
SWIDTH 1000 0
DWIDTH 4 0
BBX 3 4 1 -1
BITMAP
A0
A0
A0
E0
ENDCHAR
STARTCHAR udieresis
ENCODING 252
SWIDTH 1000 0
DWIDTH 4 0
BBX 3 4 1 -1
BITMAP
A0
A0
A0
E0
ENDCHAR
STARTCHAR yacute
ENCODING 253
SWIDTH 1000 0
DWIDTH 4 0
BBX 3 4 1 -1
BITMAP
A0
E0
40
40
ENDCHAR
STARTCHAR thorn
ENCODING 254
SWIDTH 800 0
DWIDTH 4 0
BBX 3 4 1 -1
BITMAP
80
E0
E0
80
ENDCHAR
STARTCHAR ydieresis
ENCODING 255
SWIDTH 1000 0
DWIDTH 4 0
BBX 3 4 1 -1
BITMAP
A0
E0
40
40
ENDCHAR
ENDFONT
